<svg xmlns="http://www.w3.org/2000/svg" xmlns:xlink="http://www.w3.org/1999/xlink" width="40" zoomAndPan="magnify" viewBox="0 0 30 30.000001" height="40" preserveAspectRatio="xMidYMid meet" version="1.0"><defs><clipPath id="96b829a328"><path d="M 12.257812 8.710938 L 18.0625 8.710938 L 18.0625 20.324219 L 12.257812 20.324219 Z M 12.257812 8.710938 " clip-rule="nonzero"/></clipPath><clipPath id="5a2560577f"><path d="M 8.144531 0 L 21.933594 0 L 21.933594 29 L 8.144531 29 Z M 8.144531 0 " clip-rule="nonzero"/></clipPath></defs><g clip-path="url(#96b829a328)"><path fill="#ffffff" d="M 16.726562 10.640625 L 18.0625 10.640625 L 18.0625 8.738281 L 16.355469 8.738281 L 16.355469 8.746094 C 14.105469 8.824219 13.640625 10.011719 13.601562 11.265625 L 13.597656 11.265625 L 13.597656 12.589844 L 12.257812 12.589844 L 12.257812 14.496094 L 13.597656 14.496094 L 13.597656 20.296875 L 16 20.296875 L 16 14.496094 L 17.722656 14.496094 L 18.0625 12.589844 L 16 12.589844 L 16 11.40625 C 16 10.984375 16.300781 10.640625 16.726562 10.640625 Z M 16.726562 10.640625 " fill-opacity="1" fill-rule="nonzero"/></g><g clip-path="url(#5a2560577f)"><path fill="#a7abae" d="M 18.691406 4.820312 L 21.855469 4.820312 L 21.855469 0.0507812 L 17.816406 0.0507812 L 17.816406 0.0703125 C 12.507812 0.265625 11.410156 3.238281 11.320312 6.382812 L 11.308594 6.382812 L 11.308594 9.691406 L 8.144531 9.691406 L 8.144531 14.46875 L 11.308594 14.46875 L 11.308594 28.980469 L 16.984375 28.980469 L 16.984375 14.46875 L 21.050781 14.46875 L 21.855469 9.691406 L 16.984375 9.691406 L 16.984375 6.730469 C 16.984375 5.675781 17.6875 4.820312 18.691406 4.820312 Z M 18.691406 4.820312 " fill-opacity="1" fill-rule="nonzero"/></g></svg>