<svg xmlns="http://www.w3.org/2000/svg" xmlns:xlink="http://www.w3.org/1999/xlink" width="40" zoomAndPan="magnify" viewBox="0 0 30 30.000001" height="40" preserveAspectRatio="xMidYMid meet" version="1.0"><defs><clipPath id="8b1ede72f9"><path d="M 12.257812 8.710938 L 18.0625 8.710938 L 18.0625 20.324219 L 12.257812 20.324219 Z M 12.257812 8.710938 " clip-rule="nonzero"/></clipPath><clipPath id="23fbbf39fa"><path d="M 0.644531 0 L 29.515625 0 L 29.515625 29 L 0.644531 29 Z M 0.644531 0 " clip-rule="nonzero"/></clipPath></defs><g clip-path="url(#8b1ede72f9)"><path fill="#ffffff" d="M 16.726562 10.640625 L 18.0625 10.640625 L 18.0625 8.738281 L 16.355469 8.738281 L 16.355469 8.746094 C 14.105469 8.824219 13.640625 10.011719 13.601562 11.265625 L 13.597656 11.265625 L 13.597656 12.589844 L 12.257812 12.589844 L 12.257812 14.496094 L 13.597656 14.496094 L 13.597656 20.296875 L 16 20.296875 L 16 14.496094 L 17.722656 14.496094 L 18.0625 12.589844 L 16 12.589844 L 16 11.40625 C 16 10.984375 16.300781 10.640625 16.726562 10.640625 Z M 16.726562 10.640625 " fill-opacity="1" fill-rule="nonzero"/></g><g clip-path="url(#23fbbf39fa)"><path fill="#a7abae" d="M 20.886719 0.0117188 L 9.292969 0.0117188 C 4.53125 0.0117188 0.65625 3.886719 0.65625 8.648438 L 0.65625 20.242188 C 0.65625 25.007812 4.53125 28.882812 9.292969 28.882812 L 20.890625 28.882812 C 25.652344 28.882812 29.527344 25.007812 29.527344 20.242188 L 29.527344 8.648438 C 29.527344 3.886719 25.652344 0.0117188 20.886719 0.0117188 Z M 27.738281 20.242188 C 27.738281 24.019531 24.664062 27.09375 20.886719 27.09375 L 9.292969 27.09375 C 5.515625 27.09375 2.441406 24.019531 2.441406 20.242188 L 2.441406 8.648438 C 2.441406 4.871094 5.515625 1.796875 9.292969 1.796875 L 20.890625 1.796875 C 24.667969 1.796875 27.738281 4.871094 27.738281 8.648438 Z M 27.738281 20.242188 " fill-opacity="1" fill-rule="nonzero"/></g><path fill="#a7abae" d="M 15.089844 5.707031 C 10.273438 5.707031 6.351562 9.628906 6.351562 14.445312 C 6.351562 19.265625 10.273438 23.183594 15.089844 23.183594 C 19.910156 23.183594 23.828125 19.265625 23.828125 14.445312 C 23.828125 9.628906 19.910156 5.707031 15.089844 5.707031 Z M 15.089844 21.394531 C 11.257812 21.394531 8.140625 18.277344 8.140625 14.445312 C 8.140625 10.613281 11.257812 7.496094 15.089844 7.496094 C 18.921875 7.496094 22.042969 10.613281 22.042969 14.445312 C 22.042969 18.277344 18.921875 21.394531 15.089844 21.394531 Z M 15.089844 21.394531 " fill-opacity="1" fill-rule="nonzero"/><path fill="#a7abae" d="M 23.515625 6.125 C 23.515625 6.308594 23.480469 6.488281 23.410156 6.660156 C 23.339844 6.828125 23.238281 6.980469 23.109375 7.113281 C 22.976562 7.242188 22.824219 7.34375 22.65625 7.414062 C 22.484375 7.484375 22.304688 7.519531 22.121094 7.519531 C 21.9375 7.519531 21.757812 7.484375 21.585938 7.414062 C 21.414062 7.34375 21.265625 7.242188 21.132812 7.113281 C 21.003906 6.980469 20.902344 6.828125 20.832031 6.660156 C 20.761719 6.488281 20.726562 6.308594 20.726562 6.125 C 20.726562 5.941406 20.761719 5.761719 20.832031 5.589844 C 20.902344 5.417969 21.003906 5.269531 21.132812 5.136719 C 21.265625 5.007812 21.414062 4.90625 21.585938 4.835938 C 21.757812 4.765625 21.9375 4.730469 22.121094 4.730469 C 22.304688 4.730469 22.484375 4.765625 22.65625 4.835938 C 22.824219 4.90625 22.976562 5.007812 23.109375 5.136719 C 23.238281 5.269531 23.339844 5.417969 23.410156 5.589844 C 23.480469 5.761719 23.515625 5.941406 23.515625 6.125 Z M 23.515625 6.125 " fill-opacity="1" fill-rule="nonzero"/></svg>