<?xml version="1.0" encoding="UTF-8"?>
<!-- Generator: visioncortex VTracer 0.6.3 -->
<svg version="1.1" xmlns="http://www.w3.org/2000/svg" width="1280" height="1159">
<path d="M0 0 C422.4 0 844.8 0 1280 0 C1280 382.47 1280 764.94 1280 1159 C857.6 1159 435.2 1159 0 1159 C0 776.53 0 394.06 0 0 Z " fill="#F9FCFE" transform="translate(0,0)"/>
<path d="M0 0 C0.65 0.31 1.29 0.63 1.96 0.95 C3.44 1.67 3.44 1.67 4.95 2.41 C15.01 7.84 15.01 7.84 18.83 10.7 C21.5 12.63 23.85 13.82 26.89 15.02 C31.79 17.23 36.35 20.19 40.96 22.95 C41.85 23.49 42.75 24.02 43.67 24.57 C47.44 26.82 51.19 29.09 54.89 31.45 C59.02 34.06 63.32 36.34 67.64 38.62 C69.96 39.95 69.96 39.95 71.96 41.95 C73.63 42.68 75.31 43.41 77.01 44.07 C79.46 45.18 81.66 46.55 83.96 47.95 C85.18 48.68 86.41 49.4 87.64 50.12 C88.31 50.51 88.99 50.91 89.68 51.32 C90.75 51.94 90.75 51.94 91.83 52.58 C100.82 57.86 109.78 63.2 118.69 68.61 C121.05 70.05 121.05 70.05 124.02 71.45 C126.61 72.78 128.64 74.22 130.96 75.95 C132.96 76.95 134.96 77.95 136.96 78.95 C139.28 80.25 141.59 81.56 143.89 82.89 C144.77 83.39 144.77 83.39 145.66 83.9 C146.84 84.58 148.01 85.26 149.19 85.94 C150.36 86.61 151.53 87.28 152.71 87.94 C157.54 90.66 162.17 93.64 166.79 96.69 C170.42 99.04 174.07 101.05 177.96 102.95 C184.67 106.65 191.28 110.46 197.71 114.64 C200.97 116.75 204.21 118.64 207.71 120.33 C212.65 122.71 217.31 125.51 221.99 128.37 C226.72 131.24 231.5 133.96 236.33 136.64 C241.33 139.42 246.13 142.33 250.85 145.57 C254.06 147.68 257.44 149.46 260.83 151.27 C270.36 156.4 279.75 161.79 289.08 167.27 C289.78 167.67 290.48 168.08 291.2 168.5 C295.21 170.87 299.09 173.36 302.96 175.95 C304.22 176.68 305.49 177.39 306.77 178.08 C311.35 180.58 315.84 183.23 320.33 185.89 C325.99 189.24 331.68 192.48 337.47 195.59 C343.07 198.66 348.5 202.02 353.89 205.45 C357.88 207.96 362.01 210.18 366.16 212.41 C369.68 214.35 373.12 216.43 376.55 218.52 C380.3 220.76 384.13 222.86 387.96 224.95 C393.48 227.98 398.92 231.1 404.3 234.36 C407.11 236.04 409.94 237.69 412.77 239.33 C416 241.2 419.2 243.09 422.36 245.07 C422.93 245.43 423.5 245.78 424.09 246.15 C425.68 247.15 427.26 248.15 428.85 249.16 C431.2 250.51 433.22 251.48 435.72 252.44 C439.26 254.09 439.69 254.45 440.96 257.95 C441.21 260.46 441.21 260.46 441.21 263.34 C441.21 264.99 441.21 264.99 441.22 266.68 C441.21 268.49 441.21 268.49 441.2 270.35 C441.21 271.63 441.21 272.92 441.21 274.25 C441.22 277.83 441.21 281.41 441.2 285 C441.2 288.87 441.2 292.74 441.21 296.61 C441.21 304.25 441.21 311.88 441.2 319.51 C441.19 328.56 441.19 337.61 441.19 346.66 C441.19 363.02 441.18 379.38 441.16 395.74 C441.15 411.22 441.14 426.7 441.14 442.18 C441.14 444.06 441.14 445.94 441.14 447.82 C441.14 449.22 441.14 449.22 441.14 450.64 C441.14 452.04 441.14 452.04 441.14 453.46 C441.14 454.85 441.14 454.85 441.14 456.28 C441.14 497.78 441.09 539.28 441 580.79 C440.97 594.5 440.95 608.22 440.93 621.94 C440.91 640.56 440.88 659.18 440.81 677.8 C440.78 687.02 440.75 696.23 440.75 705.45 C440.75 713.18 440.73 720.9 440.69 728.62 C440.67 732.55 440.66 736.47 440.67 740.39 C440.67 743.98 440.66 747.56 440.63 751.15 C440.61 753.06 440.63 754.97 440.64 756.88 C440.53 765.18 440.53 765.18 437.59 769.16 C434.79 771.07 432.04 772.54 428.96 773.95 C426.46 775.29 423.99 776.69 421.52 778.08 C420.83 778.47 420.14 778.85 419.43 779.25 C413.89 782.39 408.43 785.63 403.01 788.95 C400.41 790.52 397.83 792.02 395.11 793.38 C390.85 795.51 386.76 797.92 382.64 800.33 C377.15 803.53 371.65 806.71 366.07 809.76 C363.67 811.11 361.32 812.53 358.96 813.95 C357.37 814.86 355.77 815.77 354.18 816.67 C352.8 817.44 352.8 817.44 351.41 818.23 C350.43 818.78 349.46 819.33 348.46 819.89 C340.51 824.38 332.57 828.87 324.64 833.39 C323.82 833.86 322.99 834.33 322.14 834.82 C318.09 837.13 314.07 839.48 310.08 841.89 C303.59 845.8 296.96 849.48 290.35 853.19 C285.37 855.98 280.47 858.84 275.65 861.9 C273.47 863.26 271.23 864.49 268.96 865.7 C257.9 871.67 247 877.92 236.08 884.14 C235.23 884.63 234.37 885.11 233.49 885.62 C229.19 888.07 224.91 890.57 220.67 893.13 C217.31 895.16 213.92 897.11 210.46 898.95 C206 901.36 201.66 903.9 197.34 906.56 C195.65 907.55 193.91 908.47 192.15 909.34 C189.2 910.83 186.36 912.42 183.51 914.1 C182.49 914.69 181.48 915.29 180.44 915.9 C179.39 916.52 178.35 917.13 177.27 917.77 C170.41 921.8 163.53 925.76 156.53 929.54 C151.95 932.06 147.47 934.75 142.99 937.43 C141.94 938.05 141.94 938.05 140.88 938.68 C139.96 939.23 139.96 939.23 139.02 939.79 C137.39 940.71 135.73 941.56 134.05 942.4 C131.13 943.87 128.32 945.44 125.51 947.1 C124.49 947.69 123.48 948.29 122.44 948.9 C121.39 949.52 120.35 950.13 119.27 950.77 C112.41 954.8 105.53 958.76 98.53 962.54 C93.95 965.06 89.47 967.75 84.99 970.43 C83.94 971.05 83.94 971.05 82.88 971.68 C81.96 972.23 81.96 972.23 81.02 972.79 C79.4 973.71 77.74 974.56 76.07 975.39 C73.07 976.9 70.19 978.51 67.3 980.2 C66.26 980.81 65.22 981.42 64.14 982.05 C63.07 982.68 62 983.3 60.89 983.95 C59.82 984.58 58.74 985.21 57.63 985.86 C52.01 989.15 52.01 989.15 46.41 992.48 C44 993.93 41.56 995.32 39.11 996.7 C38.18 997.22 37.26 997.75 36.3 998.28 C34.29 999.41 32.27 1000.55 30.26 1001.67 C25.28 1004.47 20.34 1007.3 15.46 1010.29 C14.19 1011.06 14.19 1011.06 12.9 1011.84 C11.31 1012.81 9.73 1013.79 8.16 1014.79 C4.79 1016.82 2.59 1017.92 -1.39 1018.13 C-6.73 1016.41 -11.21 1013.63 -15.98 1010.7 C-18.13 1009.41 -20.29 1008.13 -22.44 1006.85 C-23.54 1006.19 -24.63 1005.54 -25.76 1004.87 C-30.81 1001.92 -35.95 999.15 -41.11 996.39 C-50.88 991.15 -60.55 985.75 -70.2 980.27 C-76.3 976.8 -82.42 973.38 -88.54 969.95 C-96.55 965.47 -104.56 960.98 -112.54 956.45 C-120.49 951.95 -128.45 947.48 -136.42 943.02 C-137.46 942.43 -138.5 941.85 -139.57 941.25 C-144.78 938.34 -149.99 935.43 -155.2 932.52 C-166.69 926.1 -178.14 919.62 -189.55 913.07 C-199.18 907.54 -208.89 902.16 -218.63 896.82 C-226.91 892.28 -235.1 887.63 -243.23 882.83 C-252.59 877.3 -262.1 872.1 -271.69 866.99 C-278.79 863.2 -285.78 859.27 -292.73 855.2 C-299.49 851.25 -306.32 847.43 -313.17 843.64 C-314.89 842.69 -314.89 842.69 -316.64 841.72 C-318.96 840.43 -321.28 839.14 -323.61 837.86 C-337.44 830.19 -351.23 822.44 -364.95 814.56 C-373.27 809.8 -381.65 805.16 -390.03 800.52 C-397.73 796.25 -405.38 791.92 -413.01 787.53 C-418.07 784.63 -423.16 781.77 -428.27 778.95 C-428.89 778.6 -429.51 778.26 -430.15 777.91 C-433.21 776.22 -436.27 774.53 -439.34 772.85 C-440.44 772.24 -441.54 771.63 -442.68 771.01 C-443.67 770.47 -444.65 769.92 -445.67 769.37 C-448.04 767.95 -448.04 767.95 -450.04 765.95 C-450.25 763.19 -450.32 760.52 -450.31 757.76 C-450.32 756.9 -450.32 756.04 -450.33 755.15 C-450.34 752.23 -450.34 749.31 -450.34 746.39 C-450.34 744.29 -450.35 742.19 -450.36 740.09 C-450.38 734.29 -450.39 728.49 -450.39 722.69 C-450.4 716.45 -450.42 710.2 -450.44 703.96 C-450.47 689.58 -450.49 675.2 -450.51 660.83 C-450.52 653.72 -450.53 646.62 -450.54 639.52 C-450.58 615.22 -450.61 590.91 -450.62 566.61 C-450.62 565.09 -450.62 563.56 -450.62 562.03 C-450.63 561.28 -450.63 560.52 -450.63 559.74 C-450.63 555.91 -450.63 552.07 -450.63 548.24 C-450.63 547.09 -450.63 547.09 -450.63 545.93 C-450.65 521.25 -450.7 496.57 -450.76 471.89 C-450.83 445.81 -450.87 419.72 -450.88 393.64 C-450.88 390.78 -450.88 387.92 -450.88 385.06 C-450.88 384.35 -450.88 383.65 -450.88 382.92 C-450.89 371.57 -450.92 360.22 -450.96 348.87 C-451 337.46 -451.01 326.05 -450.99 314.65 C-450.98 308.47 -450.98 302.28 -451.02 296.1 C-451.06 290.45 -451.06 284.79 -451.03 279.14 C-451.02 277.09 -451.03 275.04 -451.05 272.99 C-451.08 270.21 -451.06 267.43 -451.03 264.65 C-451.05 263.85 -451.07 263.05 -451.09 262.22 C-451.01 258.7 -450.8 256.74 -448.3 254.15 C-446.27 252.6 -444.24 251.25 -442.04 249.95 C-440.56 249.04 -440.56 249.04 -439.04 248.12 C-438.1 247.61 -437.16 247.1 -436.2 246.58 C-435.13 245.99 -434.06 245.41 -432.96 244.8 C-431.27 243.89 -431.27 243.89 -429.54 242.95 C-427.11 241.62 -424.69 240.29 -422.26 238.95 C-421.65 238.62 -421.04 238.28 -420.41 237.94 C-414.56 234.71 -408.8 231.35 -403.04 227.95 C-393.48 222.33 -383.82 216.92 -374.11 211.56 C-365.7 206.91 -357.4 202.1 -349.12 197.23 C-341.51 192.77 -333.82 188.46 -326.11 184.2 C-318.16 179.81 -310.26 175.37 -302.46 170.72 C-296.36 167.1 -290.17 163.65 -283.98 160.2 C-275.65 155.57 -267.38 150.85 -259.17 146.02 C-249.5 140.33 -239.73 134.85 -229.91 129.42 C-220.4 124.17 -210.96 118.8 -201.54 113.39 C-197.36 110.99 -193.17 108.59 -188.98 106.2 C-187.23 105.2 -185.48 104.2 -183.73 103.2 C-179.65 100.87 -175.56 98.54 -171.48 96.2 C-170.34 95.55 -169.19 94.9 -168.02 94.22 C-165.65 92.87 -163.29 91.52 -160.92 90.17 C-155.45 87.04 -149.97 83.91 -144.5 80.78 C-133.2 74.3 -121.89 67.83 -110.49 61.53 C-102.17 56.93 -93.93 52.2 -85.69 47.47 C-81.45 45.04 -77.22 42.62 -72.98 40.2 C-67.11 36.85 -61.24 33.49 -55.38 30.13 C-40.8 21.78 -26.2 13.48 -11.5 5.34 C-9.96 4.47 -8.44 3.58 -6.94 2.64 C-2.58 -0.06 -2.58 -0.06 0 0 Z " fill="#B8BABD" transform="translate(628.04296875,52.046875)"/>
<path d="M0 0 C3.97 1.84 7.65 4.08 11.38 6.38 C12.96 7.33 12.96 7.33 14.58 8.3 C16.72 9.58 18.85 10.87 20.98 12.17 C25.15 14.7 29.36 17.16 33.56 19.62 C34.86 20.39 36.15 21.15 37.44 21.91 C40.3 23.6 43.18 25.24 46.06 26.88 C50.19 29.26 54.28 31.7 58.38 34.12 C65.22 38.18 72.08 42.22 78.94 46.25 C87.96 51.55 96.93 56.93 105.88 62.35 C111.49 65.74 117.09 69.1 122.88 72.19 C126.21 73.97 129.37 75.86 132.5 78 C136.46 80.71 140.56 82.98 144.79 85.24 C150.94 88.61 156.94 92.24 162.98 95.81 C165.81 97.48 168.66 99.11 171.5 100.75 C174.94 102.75 178.28 104.82 181.56 107.06 C185.5 109.74 189.59 111.99 193.79 114.24 C197.72 116.39 201.58 118.66 205.44 120.94 C206.17 121.37 206.91 121.81 207.66 122.25 C209.11 123.11 210.56 123.96 212 124.82 C217.82 128.26 223.65 131.68 229.53 135 C239.91 140.85 239.91 140.85 244.69 144.12 C248.59 146.79 252.64 149.02 256.8 151.25 C262.87 154.57 268.79 158.14 274.73 161.66 C278.53 163.9 282.33 166.14 286.12 168.38 C286.81 168.78 287.5 169.18 288.2 169.6 C291.8 171.72 295.41 173.8 299.03 175.87 C304.35 178.93 309.62 182.09 314.91 185.22 C318.92 187.6 322.94 189.98 327 192.28 C333.45 195.97 333.45 195.97 335 200 C335.25 202.07 335.25 202.07 335.25 204.33 C335.25 205.2 335.25 206.06 335.26 206.95 C335.25 207.9 335.25 208.85 335.24 209.82 C335.24 211.33 335.24 211.33 335.25 212.87 C335.25 216.26 335.24 219.65 335.23 223.04 C335.23 225.46 335.23 227.88 335.23 230.31 C335.23 235.53 335.22 240.76 335.21 245.98 C335.2 253.53 335.19 261.09 335.19 268.64 C335.18 280.9 335.17 293.15 335.15 305.4 C335.13 317.31 335.12 329.21 335.11 341.12 C335.11 341.86 335.11 342.6 335.11 343.36 C335.1 349.81 335.1 356.26 335.1 362.71 C335.08 390.47 335.04 418.24 335 446 C260.42 446 185.84 446 109 446 C109.04 465.28 109.09 484.55 109.13 504.41 C109.14 516.6 109.14 528.79 109.13 540.97 C109.13 547.37 109.12 553.77 109.12 560.17 C109.12 560.97 109.12 561.78 109.12 562.6 C109.12 575.56 109.15 588.51 109.19 601.46 C109.23 614.75 109.24 628.04 109.21 641.33 C109.19 649.54 109.21 657.74 109.26 665.94 C109.29 671.57 109.28 677.19 109.25 682.81 C109.23 686.06 109.23 689.3 109.27 692.55 C109.31 696.07 109.28 699.58 109.24 703.1 C109.27 704.13 109.29 705.15 109.32 706.21 C109.24 709.13 109.09 711.29 108 714 C104.95 716.69 101.69 718.34 98 720 C96.98 720.57 95.95 721.14 94.9 721.72 C94.07 722.16 93.23 722.61 92.38 723.06 C88.4 725.2 84.57 727.48 80.77 729.91 C78.27 731.45 75.64 732.71 73 734 C68.52 736.62 64.17 739.45 59.82 742.28 C56.94 744.03 54.02 745.51 51 747 C42.9 751.5 34.92 756.2 27 761 C23.68 763 20.35 764.96 16.99 766.88 C16.07 767.41 15.14 767.94 14.19 768.48 C12.77 769.29 12.77 769.29 11.31 770.12 C10.35 770.68 9.39 771.23 8.4 771.79 C7.02 772.58 7.02 772.58 5.61 773.38 C4.78 773.86 3.94 774.34 3.08 774.83 C1.73 775.59 0.38 776.31 -1 777 C-3.71 775.89 -6.31 774.72 -8.94 773.44 C-9.71 773.07 -10.48 772.7 -11.28 772.31 C-16.34 769.86 -21.32 767.29 -26.23 764.55 C-29.46 762.74 -32.73 760.99 -36 759.25 C-36.62 758.92 -37.24 758.59 -37.88 758.25 C-39.92 757.16 -41.96 756.08 -44 755 C-45.16 754.39 -45.16 754.39 -46.33 753.76 C-57.64 747.76 -57.64 747.76 -69.06 742 C-77.83 737.66 -86.42 732.87 -94.85 727.91 C-98.8 725.6 -102.8 723.78 -107 722 C-109.95 720.56 -112.85 719.03 -115.75 717.5 C-116.5 717.11 -117.26 716.72 -118.04 716.32 C-118.76 715.93 -119.49 715.55 -120.23 715.16 C-120.89 714.81 -121.54 714.47 -122.21 714.12 C-124.21 712.87 -125.52 711.85 -127 710 C-127.38 707.55 -127.38 707.55 -127.4 704.57 C-127.42 702.87 -127.42 702.87 -127.43 701.14 C-127.43 699.88 -127.43 698.63 -127.43 697.34 C-127.44 696 -127.45 694.66 -127.46 693.32 C-127.49 689.63 -127.5 685.94 -127.5 682.24 C-127.51 678.26 -127.54 674.28 -127.56 670.29 C-127.6 663.37 -127.63 656.45 -127.66 649.54 C-127.69 639.46 -127.74 629.38 -127.79 619.3 C-127.88 602.85 -127.96 586.4 -128.03 569.95 C-128.09 554.14 -128.16 538.33 -128.23 522.52 C-128.24 521.56 -128.24 520.59 -128.25 519.6 C-128.3 508.98 -128.35 498.36 -128.4 487.73 C-128.42 484.88 -128.43 482.02 -128.45 479.16 C-128.46 477.27 -128.47 475.38 -128.48 473.49 C-128.53 461.68 -128.59 449.87 -128.64 438.06 C-128.82 394.04 -129.24 350.02 -130 306 C-132.73 307.37 -133.45 309.46 -134.88 312.05 C-136.65 315.13 -138.72 317.95 -140.81 320.81 C-141.7 322.05 -142.59 323.28 -143.48 324.52 C-143.92 325.11 -144.35 325.71 -144.79 326.32 C-150.65 334.46 -156.3 342.75 -162 351 C-167.31 358.68 -172.64 366.35 -178 374 C-179.74 376.49 -181.49 378.98 -183.23 381.47 C-184.47 383.24 -185.71 385.01 -186.96 386.78 C-187.59 387.68 -188.22 388.58 -188.88 389.5 C-189.74 390.72 -189.74 390.72 -190.62 391.97 C-192.03 393.94 -192.03 393.94 -193 396 C-201.13 393.85 -205.65 384.83 -210.06 378.25 C-211.2 376.57 -212.34 374.89 -213.47 373.21 C-214.05 372.36 -214.63 371.5 -215.23 370.62 C-216.99 368.01 -218.77 365.41 -220.56 362.82 C-221.42 361.56 -221.42 361.56 -222.31 360.27 C-223.4 358.68 -224.5 357.09 -225.6 355.5 C-228.53 351.21 -231.35 346.89 -234.02 342.44 C-234.34 341.96 -234.67 341.49 -235 341 C-235.33 341 -235.66 341 -236 341 C-236.76 376.27 -237.25 411.54 -237.53 446.82 C-237.56 450.64 -237.6 454.45 -237.63 458.27 C-237.87 487.11 -238.07 515.94 -237.99 544.78 C-237.94 564.19 -238.13 583.59 -238.41 602.99 C-238.44 605.29 -238.47 607.58 -238.5 609.88 C-238.54 613.46 -238.6 617.03 -238.65 620.61 C-238.68 622.56 -238.71 624.51 -238.73 626.46 C-238.75 627.63 -238.77 628.8 -238.79 630.01 C-238.81 631.03 -238.83 632.05 -238.84 633.09 C-239.01 636.12 -239.45 639.02 -240 642 C-243.76 641.41 -246.57 640.36 -249.88 638.5 C-251.31 637.7 -251.31 637.7 -252.78 636.88 C-257.01 634.41 -261.19 631.87 -265.37 629.32 C-270.18 626.42 -275.11 623.91 -280.17 621.46 C-284.05 619.46 -287.65 617.09 -291.31 614.71 C-294.72 612.54 -298.24 610.63 -301.8 608.72 C-312.58 602.93 -323.27 596.94 -333.86 590.8 C-335.9 589.63 -337.95 588.49 -340.02 587.38 C-341.37 586.64 -341.37 586.64 -342.75 585.88 C-343.53 585.46 -344.31 585.04 -345.11 584.62 C-347.74 582.36 -348.1 580.34 -349 577 C-349.25 573.64 -349.25 573.64 -349.25 569.89 C-349.25 569.2 -349.25 568.5 -349.25 567.79 C-349.26 565.46 -349.25 563.13 -349.24 560.8 C-349.24 559.12 -349.25 557.43 -349.25 555.75 C-349.25 551.13 -349.25 546.5 -349.24 541.88 C-349.23 536.91 -349.23 531.93 -349.23 526.96 C-349.23 517.25 -349.22 507.54 -349.2 497.83 C-349.19 489.96 -349.18 482.09 -349.18 474.22 C-349.12 379.81 -348.63 285.4 -348 191 C-347.25 190.59 -346.49 190.18 -345.72 189.76 C-344.73 189.22 -343.74 188.68 -342.72 188.12 C-341.74 187.59 -340.76 187.06 -339.75 186.51 C-337.65 185.36 -335.57 184.2 -333.5 183 C-328.72 180.24 -323.85 177.63 -319 175 C-315.33 173 -311.67 171 -308 169 C-306.74 168.32 -306.74 168.32 -305.45 167.62 C-304.66 167.19 -303.87 166.76 -303.06 166.31 C-302.03 165.75 -302.03 165.75 -300.97 165.18 C-298.93 164.01 -298.93 164.01 -296.9 162.42 C-294.71 160.78 -292.54 159.99 -290 159 C-289.3 158.58 -288.59 158.15 -287.87 157.72 C-283.43 155.06 -278.82 152.72 -274.24 150.32 C-270.42 148.31 -266.69 146.24 -263 144 C-260.25 142.48 -257.48 140.99 -254.72 139.5 C-252.11 138.06 -249.55 136.54 -247 135 C-244.82 133.71 -242.64 132.44 -240.44 131.19 C-239.32 130.54 -238.21 129.9 -237.06 129.23 C-234 128 -234 128 -232.01 128.62 C-229.44 130.38 -228.34 132.23 -226.75 134.9 C-223.05 140.95 -219.07 146.76 -215 152.56 C-213.99 154.01 -213.99 154.01 -212.96 155.48 C-211.63 157.39 -210.29 159.3 -208.95 161.21 C-207.65 163.07 -206.36 164.93 -205.08 166.8 C-204.48 167.68 -203.87 168.56 -203.25 169.46 C-202.72 170.24 -202.19 171.02 -201.64 171.82 C-199.93 174.1 -198.06 176.04 -196 178 C-193.22 175.38 -191.15 172.88 -189.25 169.56 C-186.93 165.59 -184.56 161.66 -182.12 157.75 C-178.54 151.94 -175.12 146.04 -171.76 140.09 C-169.01 135.26 -166.08 130.62 -163 126 C-161.99 124.34 -160.99 122.67 -160 121 C-158.77 119.02 -157.52 117.04 -156.28 115.06 C-153.68 110.88 -151.21 106.64 -148.75 102.38 C-145.83 97.36 -142.76 92.47 -139.62 87.59 C-137.7 84.52 -135.98 81.37 -134.25 78.19 C-132.48 75.09 -130.47 72.17 -128.43 69.24 C-126.88 66.95 -126.88 66.95 -125.75 63.98 C-123.54 60.22 -120.87 58.82 -117.06 57 C-116.39 56.66 -115.71 56.32 -115.02 55.97 C-113.02 54.96 -111.01 53.98 -109 53 C-107.08 52.04 -105.17 51.08 -103.25 50.12 C-102.29 49.65 -101.34 49.18 -100.35 48.69 C-96.08 46.54 -91.85 44.3 -87.62 42.06 C-82.03 39.1 -76.42 36.19 -70.75 33.38 C-65.72 30.88 -60.72 28.31 -55.75 25.69 C-55.11 25.35 -54.46 25.01 -53.8 24.66 C-51.21 23.29 -49.08 22.08 -47 20 C-46.15 19.73 -45.31 19.46 -44.44 19.19 C-40.84 17.95 -37.82 16.32 -34.54 14.41 C-32.46 13.26 -30.38 12.18 -28.25 11.13 C-25.37 9.71 -22.55 8.21 -19.75 6.64 C-19.04 6.25 -18.33 5.85 -17.6 5.45 C-16.15 4.64 -14.7 3.83 -13.27 3 C-8.67 0.48 -5.34 -0.96 0 0 Z " fill="#E6222B" transform="translate(630,174)"/>
<path d="M0 0 C4.63 0.41 7.74 1.74 11.67 4.17 C12.73 4.81 13.79 5.46 14.88 6.13 C15.97 6.81 17.06 7.49 18.19 8.19 C25.1 12.44 32 16.62 39.15 20.46 C44.7 23.46 50.15 26.62 55.62 29.75 C56.24 30.1 56.86 30.45 57.49 30.82 C65.32 35.29 73.13 39.81 80.89 44.4 C87.39 48.25 93.95 51.99 100.52 55.72 C105.62 58.62 110.68 61.59 115.7 64.63 C118.04 66.02 120.41 67.33 122.81 68.62 C131.97 73.58 140.97 78.81 150 84 C151.05 84.6 152.1 85.2 153.18 85.82 C165.33 92.79 177.44 99.83 189.44 107.07 C194.22 109.95 199.03 112.72 203.95 115.34 C216.12 121.96 228.05 129.01 240 136 C252.8 143.48 265.66 150.87 278.58 158.14 C289.32 164.19 300.01 170.31 310.65 176.55 C317.35 180.47 324.09 184.34 330.85 188.17 C349 198.48 349 198.48 357.69 203.88 C358.33 204.27 358.98 204.67 359.65 205.08 C363.87 207.75 363.87 207.75 365 210 C365.1 212.28 365.13 214.57 365.14 216.86 C365.14 217.57 365.14 218.29 365.15 219.03 C365.15 221.46 365.15 223.88 365.15 226.31 C365.16 228.06 365.16 229.81 365.17 231.55 C365.18 236.38 365.18 241.2 365.19 246.02 C365.2 251.21 365.21 256.41 365.22 261.6 C365.24 274.15 365.26 286.7 365.27 299.25 C365.27 302.79 365.28 306.33 365.28 309.87 C365.31 331.85 365.33 353.83 365.34 375.81 C365.34 380.9 365.35 385.99 365.35 391.08 C365.35 392.35 365.35 393.62 365.35 394.92 C365.37 415.44 365.4 435.96 365.44 456.49 C365.48 477.54 365.51 498.59 365.51 519.64 C365.51 531.46 365.53 543.29 365.56 555.12 C365.59 565.18 365.6 575.25 365.59 585.32 C365.58 590.46 365.58 595.6 365.61 600.74 C365.63 605.44 365.63 610.15 365.61 614.85 C365.61 616.55 365.62 618.26 365.63 619.96 C365.65 622.27 365.64 624.58 365.62 626.89 C365.62 628.18 365.62 629.46 365.62 630.79 C365 634 365 634 362.64 636.4 C360 638 358.05 638.65 355 639 C355 639.66 355 640.32 355 641 C353.97 641.5 352.94 641.99 351.88 642.5 C347.27 644.8 342.82 647.36 338.36 649.93 C334.64 652.07 330.9 654.15 327.12 656.19 C323.35 658.23 319.72 660.4 316.1 662.71 C310.8 665.97 305.27 668.88 299.69 671.62 C296.94 672.96 296.94 672.96 294.31 674.81 C290.6 677.26 286.77 679.33 282.86 681.43 C280.2 682.89 277.6 684.42 275 686 C270.65 688.65 266.2 691.08 261.72 693.5 C259.11 694.94 256.55 696.45 254 698 C249.72 700.6 245.37 703 240.97 705.38 C233.34 709.55 225.81 713.88 218.38 718.41 C211.72 722.48 204.97 726.13 197.93 729.49 C195.35 730.82 193.28 732.24 191 734 C189.39 734.92 187.76 735.82 186.12 736.69 C181.78 739.03 177.47 741.42 173.19 743.88 C172.61 744.21 172.02 744.54 171.42 744.89 C170.23 745.57 169.03 746.26 167.84 746.95 C165.95 748.03 164.06 749.11 162.17 750.18 C161.55 750.54 160.92 750.9 160.28 751.26 C158.54 752.26 156.8 753.25 155.06 754.24 C153.17 755.33 151.29 756.43 149.42 757.55 C146.92 759.05 144.38 760.44 141.81 761.81 C138.15 763.8 134.56 765.84 131 768 C127.65 770.04 124.27 771.96 120.81 773.81 C116.46 776.16 112.22 778.67 108 781.25 C102.28 784.74 96.45 787.92 90.5 791 C83.26 794.75 76.24 798.73 69.3 802.99 C66.49 804.7 63.66 806.35 60.8 807.97 C58.27 809.42 55.76 810.91 53.26 812.4 C45.75 816.85 38.19 821.16 30.55 825.37 C22.72 829.7 14.89 834.05 7.23 838.67 C3.58 840.85 3.58 840.85 1 841 C-5.98 838.41 -12.34 834.57 -18.81 830.94 C-20.02 830.26 -21.23 829.59 -22.44 828.91 C-24.84 827.57 -27.25 826.22 -29.65 824.88 C-34.14 822.36 -38.63 819.87 -43.12 817.38 C-45.1 816.28 -47.07 815.18 -49.04 814.09 C-50.42 813.32 -51.81 812.56 -53.19 811.79 C-58.32 808.96 -63.39 806.04 -68.44 803.06 C-69.18 802.63 -69.92 802.19 -70.68 801.74 C-74.62 799.42 -78.54 797.07 -82.44 794.69 C-85.45 792.87 -88.48 791.23 -91.64 789.7 C-96.99 787.04 -102.19 784.15 -107.38 781.19 C-108.36 780.63 -109.34 780.07 -110.35 779.5 C-115.83 776.38 -121.3 773.25 -126.77 770.12 C-129.1 768.79 -131.42 767.46 -133.75 766.12 C-134.33 765.79 -134.91 765.46 -135.51 765.12 C-145.57 759.36 -155.68 753.71 -165.82 748.09 C-172.49 744.4 -179.13 740.66 -185.73 736.86 C-189.58 734.67 -193.44 732.52 -197.31 730.38 C-212.73 721.83 -228.13 713.24 -243.44 704.5 C-244.26 704.03 -245.08 703.56 -245.93 703.08 C-249.95 700.78 -253.94 698.44 -257.91 696.03 C-263.18 692.85 -268.58 689.92 -274 687 C-275.69 686.08 -277.39 685.16 -279.08 684.25 C-279.92 683.79 -280.75 683.34 -281.62 682.87 C-291.19 677.67 -300.71 672.37 -310.18 667 C-316.21 663.58 -322.25 660.18 -328.3 656.81 C-338.08 651.36 -347.82 645.83 -357.5 640.19 C-358.54 639.58 -359.58 638.98 -360.65 638.35 C-367.87 634.13 -367.87 634.13 -369 633 C-369.25 630.51 -369.43 628.05 -369.56 625.55 C-369.6 624.76 -369.64 623.96 -369.68 623.13 C-370.22 611.81 -370.12 600.48 -370.09 589.15 C-370.08 586.56 -370.08 583.98 -370.08 581.4 C-370.02 549.22 -369.82 517.05 -369.63 484.88 C-369.6 479.59 -369.57 474.3 -369.53 469.01 C-369.45 454.25 -369.36 439.49 -369.27 424.73 C-369.26 423.8 -369.26 422.87 -369.25 421.91 C-369.24 420.02 -369.23 418.14 -369.22 416.25 C-369.21 415.32 -369.21 414.38 -369.2 413.42 C-369.19 412.48 -369.19 411.55 -369.18 410.58 C-369.09 395.31 -369 380.03 -368.91 364.76 C-368.82 348.93 -368.73 333.11 -368.63 317.28 C-368.58 308.45 -368.53 299.62 -368.48 290.79 C-368.43 283.31 -368.39 275.82 -368.34 268.34 C-368.32 264.54 -368.29 260.74 -368.27 256.93 C-368.23 247.95 -368.14 238.98 -368 230 C-367.99 228.91 -367.97 227.82 -367.96 226.7 C-367.92 223.74 -367.84 220.78 -367.76 217.83 C-367.75 216.98 -367.74 216.14 -367.73 215.27 C-367.58 211.46 -367.25 209.33 -364.93 206.25 C-362.28 204.16 -359.73 202.93 -356.62 201.62 C-354.42 200.53 -352.22 199.43 -350.02 198.33 C-348.87 197.79 -347.71 197.25 -346.53 196.69 C-340.63 193.86 -335 190.59 -329.31 187.38 C-327.04 186.11 -324.76 184.85 -322.48 183.6 C-314.1 178.96 -305.8 174.2 -297.5 169.43 C-293.31 167.03 -289.13 164.64 -284.94 162.25 C-279.04 158.88 -273.15 155.52 -267.26 152.14 C-252.53 143.72 -237.78 135.34 -223 127 C-208.31 118.71 -193.64 110.38 -179 102 C-159.91 91.07 -140.82 80.15 -121.61 69.43 C-111.86 63.99 -102.12 58.53 -92.52 52.82 C-85.26 48.52 -77.88 44.43 -70.5 40.31 C-63.77 36.56 -57.06 32.77 -50.38 28.94 C-42.99 24.71 -35.6 20.5 -28.19 16.31 C-27.23 15.77 -26.27 15.23 -25.28 14.67 C-20.87 12.18 -16.45 9.69 -12.03 7.21 C-10.9 6.58 -10.9 6.58 -9.76 5.94 C-8.37 5.17 -6.99 4.4 -5.61 3.63 C-2.62 2.07 -2.62 2.07 0 0 Z M-10.44 38.25 C-11.87 39.05 -13.31 39.84 -14.75 40.64 C-15.45 41.04 -16.15 41.43 -16.88 41.84 C-19.62 43.34 -22.42 44.73 -25.23 46.12 C-27.39 47.19 -29.48 48.36 -31.56 49.56 C-34.27 51.09 -36.94 52.45 -39.81 53.62 C-42.91 54.81 -42.91 54.81 -44.93 56.45 C-47 58 -48.96 59.05 -51.3 60.12 C-52.11 60.5 -52.93 60.88 -53.76 61.27 C-54.6 61.65 -55.45 62.04 -56.31 62.44 C-63.08 65.53 -63.08 65.53 -69.62 69.05 C-73.24 71.14 -76.93 72.98 -80.69 74.81 C-86.56 77.71 -92.22 80.83 -97.84 84.2 C-102.35 86.77 -106.99 89.06 -111.66 91.34 C-118.48 94.64 -118.48 94.64 -122 101 C-122.9 102.44 -123.84 103.86 -124.81 105.25 C-126.82 108.19 -128.68 111.12 -130.38 114.25 C-134.25 121.39 -138.55 128.33 -143.06 135.08 C-146.07 139.61 -148.77 144.3 -151.5 149 C-157.35 159.06 -157.35 159.06 -159.81 162.62 C-162.34 166.36 -164.41 170.34 -166.54 174.32 C-169.4 179.56 -172.59 184.61 -175.73 189.69 C-177.56 192.65 -179.37 195.61 -181.16 198.6 C-181.51 199.18 -181.86 199.76 -182.22 200.36 C-183.2 201.98 -184.17 203.6 -185.14 205.22 C-186.89 207.83 -188.7 209.88 -191 212 C-193.68 209.43 -195.95 206.85 -198.07 203.8 C-198.63 202.99 -199.19 202.18 -199.77 201.35 C-200.36 200.49 -200.95 199.63 -201.56 198.75 C-202.18 197.86 -202.8 196.98 -203.43 196.06 C-205.29 193.38 -207.15 190.69 -209 188 C-209.53 187.23 -210.06 186.46 -210.61 185.66 C-212.94 182.28 -215.26 178.91 -217.58 175.52 C-220.69 170.99 -223.84 166.49 -227 162 C-231.5 163.37 -235.44 165.17 -239.56 167.44 C-240.66 168.03 -241.75 168.63 -242.88 169.25 C-244.79 170.32 -246.7 171.42 -248.58 172.55 C-251.08 174.05 -253.62 175.43 -256.19 176.81 C-259.83 178.79 -263.41 180.83 -266.94 183 C-271.66 185.88 -276.55 188.31 -281.53 190.7 C-284.09 191.89 -284.09 191.89 -286 194 C-287.66 194.67 -289.33 195.34 -291 196 C-292.89 197.05 -294.77 198.14 -296.62 199.25 C-303.54 203.34 -310.57 207.19 -317.67 210.94 C-324.2 214.4 -330.66 217.89 -336.95 221.77 C-338.93 222.96 -340.94 223.98 -343 225 C-343.64 320.53 -344.12 416.06 -344.18 511.59 C-344.18 519.45 -344.2 527.32 -344.21 535.18 C-344.22 544.79 -344.23 554.4 -344.23 564.01 C-344.23 568.93 -344.23 573.85 -344.24 578.77 C-344.25 583.29 -344.25 587.8 -344.24 592.31 C-344.24 593.95 -344.25 595.59 -344.25 597.22 C-344.26 599.45 -344.25 601.67 -344.25 603.89 C-344.25 605.13 -344.25 606.37 -344.25 607.64 C-343.95 611.62 -343.5 615.56 -340.51 618.42 C-339.93 618.74 -339.35 619.06 -338.75 619.39 C-338.09 619.76 -337.43 620.14 -336.74 620.52 C-335.66 621.1 -335.66 621.1 -334.56 621.69 C-333.02 622.55 -331.48 623.41 -329.93 624.28 C-329.13 624.72 -328.32 625.16 -327.49 625.62 C-324.15 627.47 -320.86 629.4 -317.57 631.32 C-310.9 635.22 -304.2 639.02 -297.4 642.68 C-294.91 644.05 -292.49 645.51 -290.06 647 C-285.49 649.78 -280.77 652.18 -275.96 654.51 C-270.46 657.28 -265.19 660.47 -259.9 663.6 C-254.17 666.99 -248.43 670.37 -242.62 673.62 C-241.79 674.09 -240.96 674.56 -240.1 675.04 C-237.93 676.21 -237.93 676.21 -235 676 C-234.18 671.67 -233.85 667.55 -233.79 663.15 C-233.78 662.49 -233.77 661.83 -233.76 661.15 C-233.73 658.96 -233.71 656.77 -233.68 654.58 C-233.66 653.01 -233.64 651.44 -233.62 649.86 C-233.58 646.53 -233.54 643.21 -233.5 639.88 C-233.45 635.78 -233.4 631.69 -233.34 627.6 C-233.08 608.26 -232.98 588.92 -233 569.57 C-233.03 543.86 -232.86 518.16 -232.63 492.45 C-232.58 487.53 -232.54 482.6 -232.5 477.68 C-232.23 443.45 -231.74 409.23 -231 375 C-228.26 378.38 -225.75 381.79 -223.38 385.44 C-220.05 390.47 -216.61 395.39 -213.07 400.27 C-210.54 403.79 -208.09 407.34 -205.68 410.94 C-204.83 412.21 -204.83 412.21 -203.96 413.51 C-202.84 415.17 -201.74 416.84 -200.64 418.52 C-197.53 423.16 -194.58 426.75 -190 430 C-189.34 430 -188.68 430 -188 430 C-187.05 428.67 -186.12 427.32 -185.24 425.94 C-183.86 423.79 -182.41 421.71 -180.94 419.62 C-177.81 415.16 -174.71 410.68 -171.62 406.19 C-167.49 400.16 -163.33 394.14 -159.17 388.13 C-157.73 386.05 -156.3 383.98 -154.86 381.9 C-146.57 369.89 -138.24 357.91 -129.52 346.2 C-128.13 344.19 -127.02 342.22 -126 340 C-125.67 340 -125.34 340 -125 340 C-124.37 375.49 -123.91 410.97 -123.83 446.47 C-123.83 447.29 -123.83 448.11 -123.82 448.96 C-123.81 456.63 -123.79 464.3 -123.78 471.98 C-123.76 484.72 -123.72 497.46 -123.67 510.19 C-123.67 511.13 -123.67 512.07 -123.66 513.03 C-123.64 520.69 -123.61 528.35 -123.58 536.01 C-123.56 542.79 -123.53 549.57 -123.51 556.35 C-123.51 557.32 -123.5 558.28 -123.5 559.28 C-123.45 575.09 -123.42 590.9 -123.4 606.7 C-123.38 623.07 -123.33 639.44 -123.25 655.81 C-123.2 665.84 -123.18 675.87 -123.19 685.91 C-123.19 692.74 -123.17 699.57 -123.12 706.4 C-123.09 710.33 -123.07 714.27 -123.09 718.2 C-123.11 721.8 -123.1 725.4 -123.05 729 C-123.03 730.91 -123.06 732.83 -123.08 734.75 C-123.08 740.87 -123.08 740.87 -120.28 746.06 C-118.24 747.62 -116.28 748.84 -114 750 C-113.1 750.51 -113.1 750.51 -112.17 751.03 C-110.48 751.95 -108.74 752.79 -107 753.62 C-105.87 754.17 -104.73 754.72 -103.56 755.29 C-102.39 755.85 -101.21 756.42 -100 757 C-94.2 759.85 -88.47 762.81 -82.75 765.81 C-81.91 766.25 -81.08 766.69 -80.21 767.14 C-75.68 769.54 -71.21 772 -66.81 774.62 C-60.37 778.46 -53.67 781.75 -46.94 785.05 C-41.3 787.82 -35.72 790.65 -30.19 793.62 C-28.89 794.32 -27.59 795.01 -26.29 795.71 C-24.05 796.9 -21.82 798.1 -19.59 799.29 C-17.08 800.64 -14.57 801.98 -12.06 803.31 C-11.28 803.73 -10.5 804.15 -9.7 804.59 C-4.9 807.13 -0.23 809.5 5 811 C7.38 810.35 7.38 810.35 9.19 808.62 C13.86 805.03 18.77 802.35 23.98 799.61 C27.67 797.64 31.19 795.56 34.62 793.19 C38.31 790.7 42.23 788.67 46.14 786.57 C48.8 785.11 51.4 783.58 54 782 C57.49 779.88 61.03 777.88 64.62 775.94 C68.6 773.8 72.43 771.52 76.23 769.09 C78.73 767.55 81.36 766.29 84 765 C86.44 763.56 88.87 762.08 91.29 760.61 C96.66 757.34 102.11 754.26 107.65 751.3 C110.15 749.96 110.15 749.96 113 748 C113.46 745.96 113.46 745.96 113.38 743.57 C113.39 742.63 113.4 741.69 113.41 740.73 C113.41 739.17 113.41 739.17 113.4 737.59 C113.41 736.49 113.41 735.39 113.42 734.26 C113.44 730.57 113.43 726.87 113.43 723.17 C113.44 720.53 113.45 717.89 113.46 715.25 C113.49 709.55 113.5 703.85 113.5 698.16 C113.51 689.92 113.53 681.68 113.56 673.44 C113.6 660.08 113.63 646.71 113.65 633.35 C113.67 620.36 113.7 607.38 113.74 594.39 C113.74 593.18 113.74 593.18 113.74 591.94 C113.76 585.62 113.78 579.3 113.8 572.98 C113.88 541.99 113.94 510.99 114 480 C188.58 480 263.16 480 340 480 C340.09 436.4 340.09 436.4 340.15 392.8 C340.15 386.92 340.16 381.05 340.16 375.17 C340.17 374.44 340.17 373.7 340.17 372.94 C340.18 361.05 340.2 349.15 340.23 337.26 C340.26 325.06 340.28 312.86 340.28 300.65 C340.29 293.12 340.3 285.59 340.32 278.06 C340.34 272.29 340.34 266.51 340.34 260.74 C340.34 258.37 340.35 256 340.36 253.63 C340.37 250.4 340.37 247.17 340.36 243.94 C340.37 243 340.38 242.06 340.39 241.08 C340.35 236.27 340.25 232.84 337 229 C335.21 228.05 333.41 227.12 331.56 226.29 C328.29 224.64 325.29 222.64 322.25 220.62 C316.94 217.13 311.55 214.2 305.82 211.43 C302.19 209.59 298.85 207.41 295.44 205.18 C290.75 202.16 285.93 199.38 281.12 196.56 C274.98 192.95 268.86 189.33 262.81 185.56 C258.15 182.67 253.4 180.03 248.57 177.44 C245.24 175.57 242.13 173.46 238.98 171.3 C236.43 169.63 233.74 168.34 231 167 C229.76 166.24 228.53 165.47 227.31 164.69 C224.31 162.78 221.27 161.04 218.12 159.38 C212.15 156.16 206.41 152.6 200.64 149.04 C195.63 145.96 190.56 143.08 185.37 140.32 C182.99 138.99 180.75 137.54 178.5 136 C174.53 133.29 170.42 131.01 166.18 128.74 C155.01 122.63 144.15 115.9 133.24 109.33 C128.45 106.44 123.62 103.62 118.75 100.88 C113.04 97.64 107.47 94.22 101.94 90.68 C97.36 87.76 92.65 85.15 87.87 82.57 C83.16 79.99 78.55 77.25 73.94 74.5 C72.56 73.69 72.56 73.69 71.16 72.86 C65.84 69.7 60.53 66.52 55.24 63.32 C53.04 62.02 50.81 60.78 48.56 59.56 C45.16 57.69 41.89 55.67 38.62 53.56 C34.24 50.74 29.78 48.19 25.16 45.75 C22.65 44.36 20.21 42.92 17.77 41.4 C16.65 40.72 16.65 40.72 15.51 40.02 C14.03 39.11 12.56 38.19 11.1 37.25 C2.93 32.26 -2.49 33.69 -10.44 38.25 Z " fill="#F7F7F7" transform="translate(625,140)"/>
<path d="M0 0 C6.38 0.35 11.02 3.69 16.31 6.94 C18.28 8.12 20.24 9.31 22.21 10.49 C23.19 11.08 24.16 11.67 25.16 12.28 C29.23 14.75 33.33 17.16 37.44 19.56 C38.44 20.15 38.44 20.15 39.46 20.75 C42.98 22.82 46.51 24.86 50.06 26.89 C54.19 29.26 58.28 31.7 62.38 34.12 C69.22 38.18 76.08 42.22 82.94 46.25 C91.96 51.55 100.93 56.93 109.88 62.35 C115.49 65.74 121.09 69.1 126.88 72.19 C130.21 73.97 133.37 75.86 136.5 78 C140.46 80.71 144.56 82.98 148.79 85.24 C154.94 88.61 160.94 92.24 166.98 95.81 C169.81 97.48 172.66 99.11 175.5 100.75 C178.94 102.75 182.28 104.82 185.56 107.06 C189.5 109.74 193.59 111.99 197.79 114.24 C201.72 116.39 205.58 118.66 209.44 120.94 C210.54 121.59 210.54 121.59 211.66 122.25 C213.11 123.11 214.56 123.96 216 124.82 C221.82 128.26 227.65 131.68 233.53 135 C243.91 140.85 243.91 140.85 248.69 144.12 C252.59 146.79 256.64 149.02 260.8 151.25 C266.87 154.57 272.79 158.14 278.73 161.66 C282.53 163.9 286.33 166.14 290.12 168.38 C290.81 168.78 291.5 169.18 292.2 169.6 C295.8 171.72 299.41 173.8 303.03 175.87 C308.35 178.93 313.62 182.09 318.91 185.22 C322.92 187.6 326.94 189.98 331 192.28 C337.45 195.97 337.45 195.97 339 200 C339.25 202.07 339.25 202.07 339.25 204.33 C339.25 205.2 339.25 206.06 339.26 206.95 C339.25 207.9 339.25 208.85 339.24 209.82 C339.24 211.33 339.24 211.33 339.25 212.87 C339.25 216.26 339.24 219.65 339.23 223.04 C339.23 225.46 339.23 227.88 339.23 230.31 C339.23 235.53 339.22 240.76 339.21 245.98 C339.2 253.53 339.19 261.09 339.19 268.64 C339.18 280.9 339.17 293.15 339.15 305.4 C339.13 317.31 339.12 329.21 339.11 341.12 C339.11 341.86 339.11 342.6 339.11 343.36 C339.1 349.81 339.1 356.26 339.1 362.71 C339.08 390.47 339.04 418.24 339 446 C264.42 446 189.84 446 113 446 C113.04 465.28 113.09 484.55 113.13 504.41 C113.14 516.6 113.14 528.79 113.13 540.97 C113.13 547.37 113.12 553.77 113.12 560.17 C113.12 560.97 113.12 561.78 113.12 562.6 C113.12 575.56 113.15 588.51 113.19 601.46 C113.23 614.75 113.24 628.04 113.21 641.33 C113.19 649.54 113.21 657.74 113.26 665.94 C113.29 671.57 113.28 677.19 113.25 682.81 C113.23 686.06 113.23 689.3 113.27 692.55 C113.31 696.07 113.28 699.58 113.24 703.1 C113.27 704.13 113.29 705.15 113.32 706.21 C113.24 709.13 113.09 711.29 112 714 C108.95 716.69 105.69 718.34 102 720 C100.46 720.85 100.46 720.85 98.9 721.72 C98.07 722.16 97.23 722.61 96.38 723.06 C92.4 725.2 88.57 727.48 84.77 729.91 C82.27 731.45 79.64 732.71 77 734 C72.52 736.62 68.17 739.45 63.82 742.28 C60.94 744.03 58.02 745.51 55 747 C46.9 751.5 38.92 756.2 31 761 C25.82 764.12 20.61 767.16 15.38 770.19 C13.94 771.03 13.94 771.03 12.48 771.88 C11.57 772.41 10.65 772.94 9.71 773.48 C8.88 773.96 8.05 774.45 7.19 774.95 C5 776 5 776 2 776 C2 520.58 2 265.16 2 2 C1.67 2.33 1.34 2.66 1 3 C0.67 2.01 0.34 1.02 0 0 Z " fill="#BA1F23" transform="translate(626,174)"/>
<path d="M0 0 C5.89 2.21 11.51 4.79 16.56 8.56 C19.23 10.54 21.83 11.84 24.93 13.07 C29.83 15.28 34.39 18.24 39 21 C39.9 21.53 40.79 22.06 41.71 22.61 C45.49 24.86 49.23 27.14 52.94 29.5 C57.07 32.11 61.36 34.39 65.68 36.67 C68 38 68 38 70 40 C71.68 40.73 73.35 41.45 75.05 42.12 C77.5 43.23 79.71 44.6 82 46 C83.23 46.72 84.45 47.44 85.68 48.16 C86.35 48.56 87.03 48.96 87.72 49.36 C88.43 49.78 89.14 50.2 89.88 50.62 C98.87 55.91 107.82 61.24 116.73 66.66 C119.09 68.1 119.09 68.1 122.06 69.5 C124.65 70.82 126.69 72.26 129 74 C131 75 133 76 135 77 C137.32 78.3 139.63 79.61 141.94 80.94 C142.52 81.27 143.1 81.61 143.7 81.95 C144.88 82.63 146.06 83.31 147.23 83.99 C148.4 84.66 149.58 85.32 150.75 85.98 C155.58 88.7 160.21 91.68 164.84 94.73 C168.46 97.09 172.11 99.1 176 101 C182.71 104.7 189.32 108.51 195.75 112.69 C199.01 114.8 202.25 116.69 205.75 118.38 C210.7 120.76 215.35 123.56 220.04 126.41 C224.76 129.28 229.54 132.01 234.38 134.69 C239.37 137.46 244.18 140.37 248.89 143.62 C252.11 145.73 255.48 147.5 258.87 149.32 C268.4 154.44 277.79 159.84 287.12 165.31 C287.82 165.72 288.52 166.13 289.24 166.55 C293.25 168.91 297.13 171.41 301 174 C302.26 174.73 303.53 175.44 304.81 176.12 C309.39 178.63 313.88 181.28 318.38 183.94 C324.03 187.28 329.73 190.52 335.52 193.64 C341.12 196.71 346.55 200.07 351.94 203.5 C355.93 206.01 360.06 208.23 364.2 210.46 C367.73 212.4 371.16 214.48 374.6 216.56 C378.35 218.81 382.17 220.9 386 223 C391.52 226.02 396.96 229.15 402.34 232.41 C405.15 234.09 407.98 235.73 410.81 237.38 C414.04 239.25 417.24 241.14 420.41 243.12 C420.97 243.47 421.54 243.83 422.13 244.19 C423.72 245.19 425.31 246.2 426.89 247.2 C429.24 248.56 431.27 249.53 433.76 250.48 C437.3 252.14 437.73 252.5 439 256 C439.25 258.51 439.25 258.51 439.25 261.39 C439.26 263.04 439.26 263.04 439.26 264.72 C439.26 266.54 439.26 266.54 439.25 268.39 C439.25 269.68 439.25 270.97 439.25 272.29 C439.26 275.88 439.25 279.46 439.25 283.04 C439.24 286.92 439.25 290.79 439.25 294.66 C439.25 302.29 439.25 309.93 439.24 317.56 C439.23 326.61 439.23 335.66 439.23 344.71 C439.23 361.07 439.22 377.43 439.21 393.78 C439.19 409.26 439.18 424.75 439.19 440.23 C439.19 442.11 439.19 443.99 439.19 445.87 C439.19 446.8 439.19 447.73 439.19 448.69 C439.19 450.09 439.19 450.09 439.19 451.51 C439.19 452.9 439.19 452.9 439.19 454.32 C439.19 495.83 439.13 537.33 439.04 578.83 C439.01 592.55 438.99 606.27 438.98 619.98 C438.96 638.61 438.92 657.23 438.85 675.85 C438.82 685.06 438.8 694.28 438.79 703.5 C438.79 711.22 438.77 718.95 438.73 726.67 C438.71 730.59 438.7 734.52 438.71 738.44 C438.72 742.02 438.7 745.61 438.67 749.19 C438.66 751.1 438.67 753.01 438.68 754.93 C438.57 763.22 438.57 763.22 435.64 767.2 C432.83 769.11 430.08 770.59 427 772 C424.5 773.34 422.03 774.73 419.56 776.12 C418.53 776.71 418.53 776.71 417.47 777.3 C411.94 780.43 406.47 783.67 401.05 786.99 C398.46 788.57 395.87 790.07 393.15 791.42 C388.89 793.56 384.8 795.97 380.69 798.38 C375.2 801.58 369.69 804.75 364.12 807.81 C361.71 809.16 359.36 810.58 357 812 C355.41 812.91 353.82 813.82 352.22 814.71 C350.85 815.49 350.85 815.49 349.45 816.28 C348.48 816.83 347.5 817.37 346.5 817.94 C338.55 822.42 330.61 826.92 322.69 831.44 C321.86 831.91 321.03 832.38 320.18 832.86 C316.13 835.18 312.11 837.53 308.12 839.94 C301.63 843.85 295.01 847.53 288.39 851.23 C283.42 854.03 278.51 856.89 273.69 859.94 C271.51 861.31 269.27 862.54 267 863.75 C255.94 869.72 245.04 875.96 234.12 882.19 C233.27 882.67 232.41 883.16 231.53 883.66 C227.23 886.12 222.96 888.62 218.71 891.18 C215.35 893.2 211.97 895.16 208.5 897 C204.04 899.4 199.7 901.95 195.39 904.61 C193.69 905.6 191.95 906.52 190.19 907.39 C187.24 908.88 184.4 910.47 181.55 912.14 C180.54 912.74 179.52 913.33 178.48 913.95 C177.43 914.56 176.39 915.18 175.31 915.81 C168.45 919.85 161.57 923.81 154.57 927.59 C149.99 930.1 145.52 932.8 141.03 935.47 C140.34 935.89 139.64 936.3 138.92 936.73 C138 937.28 138 937.28 137.07 937.84 C135.44 938.75 133.77 939.61 132.1 940.45 C129.17 941.91 126.37 943.49 123.55 945.14 C122.54 945.74 121.52 946.33 120.48 946.95 C119.43 947.56 118.39 948.18 117.31 948.81 C110.45 952.85 103.57 956.81 96.57 960.59 C91.99 963.1 87.52 965.8 83.03 968.47 C82.34 968.89 81.64 969.3 80.92 969.73 C80 970.28 80 970.28 79.07 970.84 C77.44 971.75 75.78 972.61 74.11 973.44 C71.11 974.94 68.23 976.56 65.34 978.25 C64.3 978.86 63.26 979.47 62.19 980.09 C61.11 980.72 60.04 981.35 58.94 982 C57.86 982.63 56.79 983.26 55.68 983.91 C50.06 987.19 50.06 987.19 44.46 990.53 C42.03 991.98 39.58 993.39 37.11 994.79 C36.18 995.31 35.25 995.84 34.29 996.38 C33.31 996.94 32.33 997.49 31.31 998.06 C30.3 998.63 29.29 999.21 28.25 999.79 C19.19 1004.91 10.1 1009.97 1 1015 C-1.77 1012.23 -1.96 1010.19 -2.1 1006.33 C-2.09 1005.31 -2.07 1004.29 -2.06 1003.23 C-2.05 1002.05 -2.05 1000.87 -2.04 999.66 C-2.02 998.37 -2.01 997.08 -2 995.75 C-1.93 982.74 -2.12 969.75 -2.44 956.75 C-2.46 955.89 -2.48 955.04 -2.5 954.16 C-2.71 945.07 -2.97 936.04 -4 927 C-0.87 925.1 2.27 923.29 5.5 921.56 C12.16 917.95 18.73 914.17 25.3 910.4 C30.18 907.6 35.07 904.84 39.99 902.12 C42.65 900.64 45.26 899.11 47.88 897.56 C51.63 895.36 55.41 893.23 59.25 891.19 C63.91 888.68 68.35 885.91 72.81 883.06 C78.86 879.22 84.95 875.97 91.41 872.86 C96.31 870.41 100.89 867.43 105.5 864.46 C109.24 862.05 112.99 859.96 117 858 C119.24 856.74 121.47 855.47 123.69 854.19 C129.74 850.7 135.85 847.32 142 844 C143.96 842.94 145.92 841.88 147.88 840.81 C148.74 840.34 149.6 839.88 150.49 839.39 C154.92 836.93 159.18 834.25 163.44 831.5 C167.21 829.09 170.96 826.94 175 825 C181.66 821.52 188.05 817.78 194.3 813.61 C197.42 811.75 200.66 810.43 204 809 C206.21 807.75 208.4 806.45 210.56 805.12 C211.87 804.33 213.18 803.53 214.49 802.74 C215.2 802.3 215.92 801.87 216.65 801.42 C240.62 786.89 240.62 786.89 250.66 782.15 C253.2 780.9 255.59 779.48 258 778 C259.67 777.05 261.33 776.11 263 775.16 C265.27 773.85 267.51 772.49 269.75 771.12 C273.34 768.95 276.98 766.91 280.69 764.94 C283.77 763.28 286.65 761.61 289.44 759.5 C293.25 756.65 297.44 754.73 301.71 752.66 C306.96 750.01 312.02 747.03 317.11 744.09 C321.15 741.77 325.22 739.51 329.3 737.23 C333.91 734.65 338.43 731.94 342.89 729.09 C345.25 727.87 347.38 727.4 350 727 C350 726.34 350 725.68 350 725 C351.39 724.32 351.39 724.32 352.81 723.62 C356.04 722.06 356.04 722.06 359 720 C359.46 716.89 359.46 716.89 359.38 713.14 C359.38 712.43 359.39 711.71 359.39 710.97 C359.41 708.54 359.4 706.12 359.39 703.69 C359.39 701.94 359.4 700.19 359.4 698.45 C359.42 693.62 359.41 688.8 359.41 683.98 C359.4 678.79 359.41 673.59 359.42 668.4 C359.44 658.22 359.44 648.04 359.44 637.86 C359.43 629.59 359.44 621.31 359.44 613.04 C359.44 611.87 359.44 610.69 359.44 609.48 C359.44 607.09 359.45 604.7 359.45 602.32 C359.46 579.9 359.46 557.49 359.44 535.08 C359.43 514.56 359.45 494.04 359.47 473.51 C359.5 452.46 359.51 431.41 359.5 410.36 C359.49 398.54 359.5 386.71 359.51 374.88 C359.53 364.82 359.53 354.75 359.51 344.68 C359.5 339.54 359.5 334.4 359.52 329.26 C359.53 324.56 359.53 319.85 359.51 315.15 C359.5 313.45 359.51 311.74 359.52 310.04 C359.53 307.73 359.52 305.42 359.5 303.11 C359.5 301.82 359.5 300.54 359.5 299.21 C358.91 295.41 358 294.32 355 292 C352.77 290.63 350.55 289.36 348.25 288.12 C346.8 287.33 345.35 286.53 343.91 285.73 C343.12 285.3 342.33 284.86 341.52 284.41 C336.89 281.82 332.32 279.12 327.75 276.44 C321.08 272.53 314.41 268.65 307.69 264.82 C307.08 264.47 306.46 264.12 305.83 263.76 C302.85 262.06 299.86 260.37 296.88 258.68 C290.08 254.82 283.39 250.82 276.77 246.68 C274.54 245.33 272.35 244.11 270 243 C265.15 240.7 260.68 237.76 256.15 234.9 C253.12 233.01 253.12 233.01 250.31 231.67 C245.28 229.14 240.48 226.23 235.62 223.38 C228.55 219.23 221.48 215.11 214.31 211.12 C208.43 207.85 202.7 204.38 196.98 200.82 C193.48 198.68 189.9 196.73 186.29 194.79 C170.37 186.11 154.76 176.84 139.07 167.77 C136.21 166.12 133.34 164.47 130.48 162.81 C117.27 155.19 117.27 155.19 111.5 151.69 C107.31 149.15 103.03 146.82 98.72 144.5 C95.31 142.62 91.99 140.6 88.66 138.58 C86.11 137.06 83.52 135.63 80.9 134.23 C75.07 131.06 69.34 127.74 63.62 124.38 C55.94 119.87 48.24 115.4 40.5 111 C31.66 105.97 22.86 100.86 14.08 95.72 C13.13 95.16 12.18 94.61 11.2 94.03 C9.94 93.3 9.94 93.3 8.66 92.55 C6.56 91.32 4.45 90.11 2.33 88.9 C0.68 87.96 0.68 87.96 -1 87 C-1.02 75.8 -1.04 64.61 -1.05 53.41 C-1.06 48.21 -1.06 43.02 -1.08 37.82 C-1.09 32.81 -1.09 27.79 -1.09 22.78 C-1.1 20.87 -1.1 18.95 -1.11 17.03 C-1.11 14.36 -1.11 11.68 -1.11 9.01 C-1.12 8.21 -1.12 7.41 -1.12 6.58 C-1.11 1.11 -1.11 1.11 0 0 Z " fill="#A7ABAE" transform="translate(630,54)"/>
<path d="M0 0 C8.31 3.26 15.89 7.9 23.5 12.52 C25.95 13.97 28.43 15.34 30.94 16.69 C37.23 20.07 43.38 23.69 49.54 27.31 C50.33 27.77 51.12 28.23 51.94 28.71 C52.65 29.12 53.36 29.54 54.09 29.97 C56.12 31.14 56.12 31.14 59 32 C59 32.66 59 33.32 59 34 C59.55 34.11 60.11 34.22 60.68 34.33 C68.08 36.46 74.92 41.53 81.47 45.5 C86.9 48.72 92.48 51.68 98.07 54.61 C99.06 55.13 100.05 55.65 101.06 56.19 C101.96 56.66 102.86 57.12 103.79 57.61 C106 59 106 59 108 62 C108.25 65.05 108.25 65.05 108.24 68.84 C108.24 69.53 108.25 70.22 108.25 70.94 C108.25 73.22 108.24 75.51 108.23 77.79 C108.23 79.37 108.23 80.96 108.23 82.54 C108.23 85.87 108.22 89.19 108.21 92.51 C108.19 96.77 108.18 101.04 108.19 105.3 C108.19 108.57 108.18 111.85 108.17 115.12 C108.17 116.69 108.17 118.26 108.17 119.84 C108.16 122.03 108.16 124.22 108.15 126.42 C108.14 127.67 108.14 128.92 108.13 130.2 C108 133 108 133 107 134 C105.39 134.16 103.77 134.25 102.15 134.31 C100.56 134.37 100.56 134.37 98.94 134.43 C97.17 134.49 97.17 134.49 95.37 134.55 C94.13 134.59 92.9 134.63 91.62 134.68 C76.13 135.15 60.62 135.19 45.12 135.19 C40.84 135.19 36.57 135.2 32.3 135.22 C28.96 135.23 25.63 135.23 22.3 135.23 C20.72 135.23 19.14 135.23 17.56 135.24 C15.38 135.25 13.19 135.25 11.01 135.24 C9.15 135.25 9.15 135.25 7.26 135.25 C4.01 135 1.82 134.64 -1 133 C-1.93 130.29 -2.12 127.81 -2.09 124.96 C-2.08 124.17 -2.08 123.37 -2.07 122.55 C-2.06 121.69 -2.05 120.82 -2.04 119.93 C-2.03 118.56 -2.03 118.56 -2.01 117.15 C-1.99 114.1 -1.95 111.06 -1.91 108.01 C-1.89 105.87 -1.87 103.72 -1.85 101.58 C-1.8 97.07 -1.75 92.56 -1.7 88.05 C-1.64 82.36 -1.58 76.67 -1.52 70.98 C-1.29 47.31 -1 23.65 0 0 Z " fill="#F9FCFE" transform="translate(741,369)"/>
<path d="M0 0 C0.33 0 0.66 0 1 0 C1 115.5 1 231 1 350 C-2 347 -2 347 -2.37 344.51 C-2.37 343.51 -2.37 342.52 -2.37 341.48 C-2.38 340.33 -2.39 339.18 -2.39 337.99 C-2.38 336.72 -2.38 335.44 -2.37 334.13 C-2.37 332.77 -2.37 331.41 -2.38 330.04 C-2.39 326.29 -2.38 322.54 -2.36 318.79 C-2.35 314.75 -2.36 310.7 -2.36 306.66 C-2.37 298.73 -2.36 290.8 -2.34 282.88 C-2.32 273.64 -2.32 264.41 -2.32 255.17 C-2.32 238.68 -2.31 222.19 -2.28 205.7 C-2.26 189.71 -2.24 173.72 -2.24 157.74 C-2.24 156.75 -2.24 155.77 -2.24 154.76 C-2.24 152.78 -2.24 150.8 -2.24 148.82 C-2.24 147.84 -2.24 146.86 -2.24 145.86 C-2.24 144.88 -2.24 143.91 -2.24 142.9 C-2.23 127.66 -2.22 112.41 -2.21 97.16 C-2.21 91.65 -2.2 86.13 -2.2 80.61 C-2.19 71.85 -2.19 63.08 -2.17 54.32 C-2.17 50.32 -2.16 46.32 -2.16 42.32 C-2.16 38.64 -2.15 34.97 -2.14 31.3 C-2.14 29.36 -2.14 27.42 -2.14 25.48 C-2.07 2.07 -2.07 2.07 0 0 Z " fill="#FAFDFF" transform="translate(280,404)"/>
<path d="M0 0 C0.66 0 1.32 0 2 0 C2 0.99 2 1.98 2 3 C4.97 3.99 7.94 4.98 11 6 C11 5.34 11 4.68 11 4 C27.43 3.05 43.83 2.84 60.28 2.87 C63.73 2.88 67.18 2.87 70.62 2.87 C73.96 2.86 77.31 2.86 80.65 2.87 C82.48 2.86 82.48 2.86 84.36 2.86 C90.33 2.88 96.09 3.08 102 4 C102.5 5.49 102.5 5.49 103 7 C84.17 8.09 65.35 8.19 46.5 8.19 C42.18 8.19 37.87 8.2 33.56 8.22 C30.2 8.23 26.85 8.23 23.49 8.23 C21.9 8.23 20.31 8.23 18.72 8.24 C16.51 8.25 14.3 8.25 12.09 8.24 C10.84 8.24 9.58 8.25 8.29 8.25 C5.07 8.01 2.85 7.5 0 6 C-0.88 4 -0.88 4 -1 2 C-0.67 1.34 -0.34 0.68 0 0 Z " fill="#F6EDEE" transform="translate(740,496)"/>
<path d="M0 0 C1.98 0.99 1.98 0.99 4 2 C4.07 9.36 4.12 16.73 4.16 24.09 C4.17 27.51 4.19 30.93 4.23 34.35 C4.27 38.28 4.28 42.21 4.29 46.14 C4.31 47.37 4.32 48.59 4.34 49.86 C4.34 51 4.34 52.14 4.34 53.31 C4.35 54.32 4.35 55.32 4.36 56.36 C3.95 59.39 3.02 60.75 1 63 C-0.11 49.49 -0.12 36.04 -0.06 22.5 C-0.06 20.31 -0.05 18.12 -0.05 15.93 C-0.04 10.62 -0.02 5.31 0 0 Z " fill="#FAFDFF" transform="translate(393,520)"/>
<path d="M0 0 C1.94 0.75 1.94 0.75 4 2 C4.88 4 4.88 4 5 6 C3 8 3 8 0.44 8.19 C-2 8 -2 8 -3 7 C-3.25 4.56 -3.25 4.56 -3 2 C-2.01 1.34 -1.02 0.68 0 0 Z " fill="#F8F8F8" transform="translate(1223,1140)"/>
<path d="M0 0 C0.33 0 0.66 0 1 0 C1 8.58 1 17.16 1 26 C0.67 26 0.34 26 0 26 C-0.09 24.72 -0.09 24.72 -0.18 23.41 C-0.27 22.31 -0.35 21.2 -0.44 20.06 C-0.52 18.96 -0.6 17.86 -0.68 16.72 C-0.7 14.09 -0.7 14.09 -2 13 C-1.94 11 -1.8 9 -1.62 7 C-1.53 5.91 -1.44 4.81 -1.35 3.69 C-1 1 -1 1 0 0 Z " fill="#FAFDFF" transform="translate(500,487)"/>
<path d="M0 0 C0.66 0 1.32 0 2 0 C2 0.99 2 1.98 2 3 C2.76 3.29 3.53 3.58 4.31 3.88 C7 5 7 5 10 7 C8.54 7.05 7.08 7.09 5.62 7.12 C4.81 7.15 4 7.17 3.16 7.2 C1 7 1 7 -1 5 C-0.62 2.38 -0.62 2.38 0 0 Z " fill="#F7F1F1" transform="translate(740,496)"/>
<path d="M0 0 C2.02 1.93 3.42 3.63 5 6 C5 6.99 5 7.98 5 9 C3.35 8.67 1.7 8.34 0 8 C-0.38 5.67 -0.71 3.34 -1 1 C-0.67 0.67 -0.34 0.34 0 0 Z " fill="#F8F8F8" transform="translate(394,514)"/>
</svg>
